<svg width="536" height="48" viewBox="0 0 536 48" fill="none" xmlns="http://www.w3.org/2000/svg">
<path d="M435.157 5.72518C432.193 1.92774 427.212 0 420.36 0C411.382 0.109604 403.963 3.24943 398.294 9.32921C395.33 12.5077 393.223 16.0731 392.027 19.9285C391.195 22.6042 390.889 25.196 391.13 27.6395C391.396 30.4763 392.346 32.9585 393.958 35.0087C396.916 38.8062 401.87 40.7339 408.677 40.7339C417.538 40.7339 424.989 37.5876 430.801 31.3854C433.785 28.2069 435.879 24.7189 437.023 21.0246C438.928 14.8545 438.304 9.7096 435.157 5.72518ZM426.003 20.0962C425.522 21.6435 424.748 23.1651 423.708 24.6222C422.518 26.2662 421.101 27.6782 419.482 28.8064C416.797 30.6955 413.813 31.6497 410.614 31.6497C407.526 31.6497 405.342 30.8116 403.944 29.0837C402.254 27.0141 401.968 24.2998 403.06 20.7925C404.204 17.1046 406.349 14.2034 409.62 11.9275C412.363 10.0062 415.256 9.07777 418.468 9.07777C421.543 9.11001 423.741 9.9546 425.177 11.6696L425.184 11.676C426.874 13.6682 427.141 16.4212 426.003 20.0962Z" fill="black"/>
<path d="M536 0.889648H496.186L493.474 9.45808H506.906C505.873 12.7978 497.122 40.5727 497.122 40.5727H510.502C510.502 40.5727 519.675 11.3987 520.273 9.45808H533.302L536 0.889648Z" fill="black"/>
<path fill-rule="evenodd" clip-rule="evenodd" d="M340.315 9.503H315.258C313.458 9.503 312.06 12.9136 313.997 13.8743C315.935 14.8349 329.64 20.4247 331.2 21.2242C332.76 22.0236 334.802 24.0803 334.938 27.7037C335.068 31.327 333.787 34.8344 328.729 38.0258C325.368 40.1534 320.577 40.7078 318.451 40.5467C316.325 40.3855 291.606 40.5467 291.606 40.5467L294.591 31.4366H319.354C319.92 31.4366 321.279 31.1401 321.708 29.5154C322.013 28.3742 321.708 27.4329 319.985 26.7172C318.269 25.9951 306.508 20.9792 303.764 19.8638C301.02 18.7484 299.246 16.3951 299.623 13.3585C300 10.3154 301.32 7.2529 303.172 5.24779C305.025 3.24914 306.748 1.21179 313.152 0.895878C315.46 0.779827 319.712 0.902325 324.555 0.895878C333.144 0.882984 343.006 0.902325 343.006 0.902325L340.315 9.503Z" fill="black"/>
<path fill-rule="evenodd" clip-rule="evenodd" d="M142.38 0.896484H177.319L174.192 10.0645H151.762L149.551 16.5956H171.714L168.841 25.2414H146.925L144.844 31.6565H168.776L166.006 40.573H129.475L142.38 0.896484Z" fill="black"/>
<path d="M487.974 8.09771C487.714 6.13773 486.765 4.78381 485.348 3.6233C484.457 2.89475 483.072 2.19845 480.868 1.77293C479.256 1.45701 476.616 0.889648 470.921 0.889648C466.019 0.915438 450.403 0.928332 450.403 0.928332L447.776 9.50321C455.194 9.50321 471.87 9.58703 471.87 9.58703C474.601 9.58703 477.247 9.65795 476.525 12.4819C476.142 13.9518 475.524 14.5128 474.458 15.0866C473.879 15.396 473.002 15.7184 472.377 15.8022C471.695 15.8989 470.225 16.1826 468.49 16.1826L445.618 16.1375L437.602 40.5856H450.877C450.877 40.5856 454.746 26.4531 455.311 24.6414C456.748 24.6414 460.987 24.6672 462.333 24.6672C462.983 26.35 467.95 40.5856 467.95 40.5856H480.296C480.296 40.5856 475.095 26.711 474.061 24.0805C481.661 22.9393 485.582 19.5932 487.402 13.7004C487.838 12.282 488.065 10.7927 488.065 9.47743C488.065 9.00677 488.026 8.54902 487.974 8.09771Z" fill="black"/>
<path d="M225.357 8.51072C225.097 6.55075 224.142 5.19682 222.724 4.04276C221.834 3.31421 220.449 2.61791 218.245 2.18594C216.633 1.87002 213.024 0.896484 205.632 0.896484C200.509 0.896484 188.092 0.896484 188.092 0.896484L185.042 10.1096C185.042 10.1096 202.082 10.1612 206.887 10.187C208.285 10.1935 209.988 10.1999 209.988 10.1999C213.356 10.245 214.481 11.0316 213.785 13.0947C213.297 14.5325 212.907 14.9258 211.835 15.4996C211.269 15.809 210.385 16.1314 209.767 16.2152C209.065 16.3119 207.602 16.5956 205.879 16.5956C205.879 16.5956 190.295 16.5182 182.994 16.544L175.167 40.573H188.254C188.254 40.573 192.441 27.0209 193.013 25.2092C194.443 25.2092 197.772 25.235 199.124 25.235C199.774 26.9177 204.774 40.573 204.774 40.573H217.666C217.666 40.573 212.16 27.182 211.126 24.5516C218.733 23.4039 222.952 19.9933 224.779 14.1005C225.221 12.6821 225.442 11.1928 225.442 9.87755C225.442 9.41979 225.416 8.96203 225.357 8.51072Z" fill="black"/>
<path fill-rule="evenodd" clip-rule="evenodd" d="M116.661 0.896484H129.943C129.943 0.896484 124.82 16.7761 121.264 27.2465C120.061 30.7861 118.943 33.7454 118.215 35.383C116.869 38.4003 114.424 40.9534 108.866 43.513C106.129 44.7702 102.806 45.5761 100.44 46.2402C94.4391 47.9229 91.2664 48.0003 91.2664 48.0003L89.5696 46.2015C89.5696 46.2015 93.3794 44.7831 96.8576 42.9199C98.8015 41.8754 100.888 40.4957 102.67 38.2069C103.821 36.7305 105.407 33.8808 106.421 31.2954C110.426 21.012 116.661 0.896484 116.661 0.896484Z" fill="black"/>
<path d="M0 40.5732H13.1523C13.1523 40.5732 17.4562 26.9307 18.0348 25.119H24.3672C33.053 25.119 35.1985 24.7322 37.1229 24.4034C43.5528 22.9785 47.2846 20.2707 49.1114 14.3779C49.547 12.9659 49.8071 11.5475 49.8071 10.2387C49.8071 9.77452 49.7811 9.31676 49.7226 8.8719C49.4625 6.91193 48.5523 5.49353 47.083 4.40394C45.0741 2.91461 41.4463 0.825696 32.8515 0.903063C31.9088 0.909511 30.8035 0.909511 29.5878 0.903063C24.4972 0.877274 12.9703 0.903063 12.9703 0.903063L10.0316 9.99373L33.8397 10.0066C36.5703 10.0066 39.1643 10.516 38.4037 12.7145C37.8771 14.236 37.0124 15.0677 35.8226 15.7898C35.0424 16.2605 32.5459 16.5506 31.8178 16.5506C29.9844 16.5506 7.88618 16.5571 7.88618 16.5571L0 40.5732Z" fill="black"/>
<path d="M65.5469 31.463L57.7452 40.573H89.7841L89.7775 0.896484H72.2888L37.4154 40.573H50.5287L77.0673 10.129L77.0478 31.463H65.5469Z" fill="black"/>
<path d="M272.765 6.3957C269.801 2.57247 264.801 0.631836 257.936 0.631836C248.938 0.74144 241.507 3.90061 235.825 10.0255C232.854 13.2298 230.741 16.821 229.544 20.7022C228.712 23.3972 228.407 26.0083 228.641 28.4712C228.907 31.3338 229.863 33.8289 231.475 35.892C234.44 39.7217 239.407 41.6623 246.227 41.6623C255.108 41.6623 262.565 38.4903 268.403 32.2428C271.394 29.0386 273.494 25.5248 274.644 21.8047C276.543 15.596 275.919 10.4188 272.765 6.3957ZM263.586 20.8827C263.104 22.443 262.331 23.971 261.291 25.4345C260.101 27.0915 258.677 28.5163 257.058 29.6575C254.367 31.5594 251.376 32.5201 248.164 32.5201C245.07 32.5201 242.885 31.6755 241.481 29.9347C239.79 27.8523 239.498 25.1186 240.59 21.5791C241.734 17.859 243.886 14.9384 247.17 12.6431C249.92 10.7089 252.819 9.77408 256.037 9.77408C259.119 9.80632 261.323 10.6574 262.766 12.3852L262.773 12.3917C264.463 14.3968 264.73 17.1756 263.586 20.8827Z" fill="black"/>
<path d="M339.606 40.5924H353.025C353.025 40.5924 357.674 26.4148 358.246 24.6096H364.578C373.264 24.6096 375.403 24.2227 377.334 23.8939C383.764 22.4691 387.495 19.7612 389.322 13.8684C389.758 12.45 390.018 11.0381 390.018 9.72281C390.018 9.25861 389.992 8.80085 389.933 8.35599C389.673 6.39601 388.718 5.04209 387.3 3.88802C386.41 3.15948 385.246 2.12147 383.035 1.69595C381.423 1.38003 378.764 0.973852 373.075 0.973852C368.167 0.999641 352.518 0.896484 352.518 0.896484L349.768 9.48426L374.064 9.49716C376.794 9.49716 379.505 9.36821 378.628 12.205C378.348 13.1012 377.236 14.5647 376.04 15.2804C375.26 15.751 372.757 16.0411 372.035 16.0411C370.202 16.0411 347.635 16.0476 347.635 16.0476L339.606 40.5924Z" fill="black"/>
</svg>
