<svg width="426" height="40" viewBox="0 0 426 40" fill="none" xmlns="http://www.w3.org/2000/svg">
<path d="M146.353 0.77832H103.396V9.35608H118.346V39.9011H130.447V9.35608H146.353V0.77832Z" fill="black"/>
<path d="M374.33 7.0226V0.854492H337.246V0.86207H335.844V39.9015H337.246H374.33V33.7334H347.945V23.14H368.465V16.9719H347.945V7.0226H374.33Z" fill="black"/>
<path d="M51.2544 19.8834C51.2544 19.8607 51.2544 19.8304 51.2544 19.8077C51.2014 11.8285 47.2383 4.7208 41.0702 0.106085V0.0454652H40.9944C40.9793 0.0303101 40.9565 0.0151551 40.9414 0H10.3206C10.2979 0.0151551 10.2827 0.0303101 10.26 0.0454652H10.1766V0.106085C4.01609 4.7208 0.0530427 11.8285 0 19.8077C0 19.8304 0 19.8607 0 19.8834C0 19.9062 0 19.9365 0 19.9592H0.00757753C0.0606202 27.9383 4.02367 35.0461 10.1842 39.6608L10.2676 39.7214C10.2827 39.7366 10.3054 39.7517 10.3282 39.7669H40.949C40.9641 39.7517 40.9869 39.7366 41.002 39.7214L41.0854 39.6608C47.2459 35.0461 51.2089 27.9383 51.2696 19.9592C51.262 19.9289 51.2544 19.9062 51.2544 19.8834ZM39.9336 20.1562C39.9336 25.559 37.2814 30.3253 33.2426 33.1972H18.0194C13.9881 30.3177 11.3284 25.5514 11.3284 20.1562C11.3284 20.088 11.3284 20.0274 11.336 19.9592H11.3436C11.3436 19.9365 11.3436 19.9062 11.336 19.8834C11.3436 19.8607 11.3436 19.8304 11.3436 19.8077H11.336C11.3284 19.7395 11.3284 19.6788 11.3284 19.6106C11.3284 14.2079 13.9805 9.44918 18.0194 6.56972H33.2426C37.2814 9.44918 39.9336 14.2079 39.9336 19.6106C39.9336 19.6788 39.926 19.747 39.926 19.8077H39.9184C39.9184 19.8304 39.9184 19.8607 39.9184 19.8834C39.9184 19.9062 39.9184 19.9365 39.9184 19.9592H39.926C39.926 20.0274 39.9336 20.088 39.9336 20.1562Z" fill="black"/>
<path d="M162.265 33.1723V4.01393L162.25 4.00635C162.25 3.99877 162.25 3.99119 162.25 3.98362C162.25 2.21805 160.833 0.801053 159.068 0.77832H159.06C159.053 0.77832 159.045 0.77832 159.037 0.77832H159.022H150.164V39.8632H159.469H179.868L182.406 33.1571H162.265V33.1723Z" fill="black"/>
<path d="M219.9 6.02466H219.885C219.059 3.00123 216.293 0.781015 213.004 0.781015C212.997 0.781015 212.982 0.781015 212.974 0.781015V0.773438H198.865H198.819L184.028 39.9038H195.902L198.834 32.152H217.907L220.832 39.9038H232.713L219.9 6.02466ZM201.365 25.4459L207.177 10.0862C207.412 9.67703 207.844 9.40424 208.352 9.40424C208.928 9.40424 209.413 9.76039 209.617 10.2529C209.647 10.3211 209.663 10.3969 209.685 10.4727H209.7L215.361 25.4459H201.365Z" fill="black"/>
<path d="M277.201 0.885272L277.193 0.870117H268.282V28.5811C268.138 29.1798 267.6 29.6268 266.963 29.6268C266.479 29.6268 266.054 29.3692 265.804 28.9903L256.893 5.56061H256.878C255.9 2.86301 253.332 0.92316 250.285 0.870117H250.194C250.187 0.870117 250.172 0.870117 250.164 0.870117C250.157 0.870117 250.149 0.870117 250.141 0.870117H244.095H235.191V39.9095H247.292V10.4708H247.3C247.436 9.85707 247.982 9.39484 248.633 9.39484C249.202 9.39484 249.694 9.75098 249.899 10.2435C249.929 10.3117 249.952 10.3875 249.967 10.4633H249.982L259.09 34.5598C259.977 37.5681 262.72 39.7732 266.009 39.8489V39.8944H268.29V39.902H280.391V6.18954H280.406V0.885272H277.201Z" fill="black"/>
<path d="M99.8567 0.725586H87.7553V29.5354C84.2773 30.7857 80.6552 31.4525 76.927 31.4525C73.305 31.4525 69.7739 30.8235 66.3867 29.6414V0.861981H54.293V32.0587H54.3005V32.1799C61.1734 37.1205 68.8342 39.8938 76.927 39.8938C85.088 39.8938 92.8096 37.0826 99.7278 32.0587H99.8567V0.725586Z" fill="black"/>
<path d="M416.067 22.3043C419.697 20.6069 422.243 16.6439 422.243 12.0216C422.243 6.12626 418.098 1.30696 412.839 0.890192V0.852304H412.157C412.142 0.852304 412.127 0.844727 412.112 0.844727C412.097 0.844727 412.089 0.852304 412.074 0.852304H380.665H379.642V39.8917H391.743V23.1378H404.943L414.256 39.8917H425.857L416.067 22.3043ZM391.751 7.02041H408.331C409.869 8.34648 410.801 10.0742 410.801 11.9685C410.801 13.8932 409.839 15.6361 408.27 16.9697H391.751V7.02041Z" fill="black"/>
<path d="M325.515 0.785898H317.392V0.77832H297.539H285.445V6.96158H297.539V6.93885H316.278C319.188 11.0004 320.787 15.3802 320.787 19.9495C320.787 24.8067 318.976 29.4593 315.702 33.7406H297.539V12.2507H285.445V39.9011H285.703V39.9087H309.671C309.64 39.939 309.602 39.9693 309.565 39.9996H324.924C329.221 33.8921 331.615 27.1027 331.615 19.957C331.608 13.1448 329.433 6.66606 325.515 0.785898Z" fill="black"/>
</svg>
