<svg width="810" height="43" viewBox="0 0 810 43" fill="none" xmlns="http://www.w3.org/2000/svg">
<path d="M636.049 0H635.966H635.9C607.36 0 602.686 4.15052 602.653 21.5C602.669 38.8495 607.36 43 635.9 43H635.966H636.049C664.589 43 669.263 38.8495 669.296 21.5C669.263 4.15052 664.589 0 636.049 0ZM636.049 32.1387H635.966H635.9C621.432 32.1387 618.442 31.2641 618.426 21.5C618.442 11.7359 621.415 10.8613 635.9 10.8613H635.966H636.049C650.517 10.8613 653.507 11.7359 653.523 21.5C653.507 31.2641 650.517 32.1387 636.049 32.1387Z" fill="white"/>
<path d="M498.665 32.3136C481.504 32.3136 480.018 30.5484 480.018 21.5C480.018 12.4516 481.504 10.6864 498.665 10.6864C509.995 10.6864 516.057 11.1635 523.258 11.8314V1.06546C516.007 0.365754 510.259 0 500.036 0C470.009 0 463.501 3.54623 463.501 21.5C463.501 39.4379 469.695 43 500.036 43C510.259 43 516.007 42.6342 523.274 41.9345V31.1686C516.106 31.8365 510.078 32.3136 498.665 32.3136Z" fill="white"/>
<path d="M549.024 30.6597H564.318L577.746 42.0935H599.068L584.121 30.1508C588.217 29.5624 594.625 27.8927 594.576 15.9182C594.51 0.890471 586.532 0.906372 574.624 0.906372H532.738V42.0935H549.057V30.6597H549.024ZM549.024 11.0521H569.818C575.813 11.0521 577.795 10.9885 577.795 15.9341C577.795 20.5458 576.292 21.166 570.875 21.166H549.007V11.0521H549.024Z" fill="white"/>
<path d="M779.659 0C755.116 0 746.659 0.87463 746.659 12.5311C746.659 20.8639 749.566 22.3428 761.227 24.1398C772.887 25.9368 788.264 27.7814 788.264 27.7814C792.79 28.3698 793.252 28.7992 793.252 30.4053C793.252 32.1387 793.252 32.7907 778.338 32.7907C765.306 32.7907 748.014 30.7234 748.014 30.7234V41.4257C748.014 41.4257 761.441 43.0318 778.255 43.0318C800.684 43.0318 810 42.5865 810 30.7075C810 21.9612 806.63 20.4027 796.374 18.7807C786.1 17.1587 769.353 14.9482 769.353 14.9482C763.869 14.2008 763.589 13.6919 763.589 12.3243C763.589 10.7977 764.794 10.1775 779.23 10.1775C793.698 10.1775 807.076 12.0222 807.109 12.0222V1.39941C807.076 1.39941 794.838 0 779.659 0Z" fill="white"/>
<path d="M709.365 0C684.822 0 676.365 0.87463 676.365 12.5311C676.365 20.8639 679.272 22.3428 690.933 24.1398C702.594 25.9368 717.97 27.7814 717.97 27.7814C722.496 28.3698 722.958 28.7992 722.958 30.4053C722.958 32.1387 722.958 32.7907 708.044 32.7907C695.013 32.7907 677.72 30.7234 677.72 30.7234V41.4257C677.72 41.4257 691.148 43.0318 707.961 43.0318C730.391 43.0318 739.706 42.5865 739.706 30.7075C739.706 21.9612 736.337 20.4027 726.08 18.7807C715.807 17.1587 699.042 14.9482 699.042 14.9482C693.559 14.2008 693.278 13.6919 693.278 12.3243C693.278 10.7977 694.484 10.1775 708.919 10.1775C723.388 10.1775 736.766 12.0222 736.799 12.0222V1.39941C736.783 1.39941 724.544 0 709.365 0Z" fill="white"/>
<path d="M424.688 31.9319L422.458 42.0935H364.204V0.906372H423.911V11.068H380.556V16.8246H422.309V26.4297H380.556V31.9319H424.688Z" fill="white"/>
<path d="M60.4667 31.9319L58.2535 42.0935H0V0.906372H59.707V11.068H16.3513V16.8246H58.1049V26.4297H16.3348V31.9319H60.4667Z" fill="white"/>
<path d="M213.492 0.906372H197.173V42.0935H213.492V0.906372Z" fill="white"/>
<path d="M188.634 30.8505H150.696L150.713 0.906372H134.394V42.0935H186.322L188.634 30.8505Z" fill="white"/>
<path d="M267.17 0.906372H224.739V42.0935H241.057V31.2481H267.946C279.277 31.2481 287.75 30.9459 287.75 16.5384C287.75 1.20852 279.409 0.906372 267.17 0.906372ZM263.47 21.818H241.074V11.1157H263.388C269.367 11.1157 271.035 11.5928 271.035 16.5384C271.051 21.166 268.888 21.818 263.47 21.818Z" fill="white"/>
<path d="M101.345 32.3136C84.1846 32.3136 82.6981 30.5484 82.6981 21.5C82.6981 12.4516 84.1846 10.6864 101.345 10.6864C112.675 10.6864 118.737 11.1635 125.938 11.8314V1.06546C118.687 0.365754 112.94 0 102.716 0C72.6891 0 66.1816 3.54623 66.1816 21.5C66.1816 39.4379 72.3753 43 102.716 43C112.94 43 118.671 42.6342 125.955 41.9345V31.1686C118.787 31.8365 112.742 32.3136 101.345 32.3136Z" fill="white"/>
<path d="M327.042 0C302.499 0 294.042 0.87463 294.042 12.5311C294.042 20.8639 296.966 22.3428 308.627 24.1398C320.287 25.9368 335.664 27.7814 335.664 27.7814C340.189 28.3698 340.652 28.7992 340.652 30.4053C340.652 32.1387 340.652 32.7907 325.738 32.7907C312.706 32.7907 295.413 30.7234 295.413 30.7234V41.4257C295.413 41.4257 308.858 43.0318 325.655 43.0318C348.068 43.0318 357.4 42.5865 357.4 30.7075C357.4 21.9612 354.03 20.4027 343.774 18.7807C333.5 17.1587 316.736 14.9482 316.736 14.9482C311.253 14.2008 310.972 13.6919 310.972 12.3243C310.972 10.7977 312.178 10.1775 326.596 10.1775C341.081 10.1775 354.443 12.0222 354.476 12.0222V1.39941C354.476 1.39941 342.237 0 327.042 0Z" fill="white"/>
</svg>
