<svg width="266" height="15" viewBox="0 0 266 15" fill="none" xmlns="http://www.w3.org/2000/svg">
<path d="M208.483 0H208.456H208.434C199.079 0 197.547 1.44786 197.536 7.5C197.542 13.5521 199.079 15 208.434 15H208.456H208.483C217.838 15 219.37 13.5521 219.381 7.5C219.37 1.44786 217.838 0 208.483 0ZM208.483 11.2112H208.456H208.434C203.692 11.2112 202.712 10.9061 202.706 7.5C202.712 4.09394 203.686 3.78883 208.434 3.78883H208.456H208.483C213.225 3.78883 214.205 4.09394 214.21 7.5C214.205 10.9061 213.225 11.2112 208.483 11.2112Z" fill="black"/>
<path d="M163.451 11.2722C157.826 11.2722 157.339 10.6564 157.339 7.5C157.339 4.34357 157.826 3.72781 163.451 3.72781C167.165 3.72781 169.152 3.89423 171.512 4.12722V0.371672C169.136 0.127589 167.252 0 163.9 0C154.058 0 151.925 1.23706 151.925 7.5C151.925 13.7574 153.955 15 163.9 15C167.252 15 169.136 14.8724 171.518 14.6283V10.8728C169.168 11.1058 167.192 11.2722 163.451 11.2722Z" fill="black"/>
<path d="M179.958 10.6952H184.971L189.372 14.6838H196.361L191.462 10.5177C192.804 10.3125 194.905 9.73 194.889 5.55285C194.867 0.310615 192.252 0.316162 188.349 0.316162H174.62V14.6838H179.968V10.6952H179.958ZM179.958 3.85536H186.773C188.739 3.85536 189.388 3.83318 189.388 5.5584C189.388 7.16713 188.896 7.38347 187.12 7.38347H179.952V3.85536H179.958Z" fill="black"/>
<path d="M255.555 0C247.51 0 244.738 0.305104 244.738 4.3713C244.738 7.27811 245.691 7.79401 249.513 8.42086C253.335 9.04771 258.375 9.6912 258.375 9.6912C259.859 9.89645 260.01 10.0462 260.01 10.6065C260.01 11.2112 260.01 11.4386 255.122 11.4386C250.85 11.4386 245.182 10.7175 245.182 10.7175V14.4508C245.182 14.4508 249.584 15.0111 255.095 15.0111C262.447 15.0111 265.5 14.8558 265.5 10.7119C265.5 7.66087 264.396 7.11724 261.034 6.55141C257.666 5.98558 252.177 5.2145 252.177 5.2145C250.379 4.95377 250.287 4.77626 250.287 4.29919C250.287 3.76664 250.683 3.5503 255.414 3.5503C260.157 3.5503 264.542 4.19379 264.553 4.19379V0.488166C264.542 0.488166 260.53 0 255.555 0Z" fill="black"/>
<path d="M232.514 0C224.469 0 221.698 0.305104 221.698 4.3713C221.698 7.27811 222.65 7.79401 226.472 8.42086C230.295 9.04771 235.335 9.6912 235.335 9.6912C236.818 9.89645 236.97 10.0462 236.97 10.6065C236.97 11.2112 236.97 11.4386 232.081 11.4386C227.81 11.4386 222.141 10.7175 222.141 10.7175V14.4508C222.141 14.4508 226.543 15.0111 232.054 15.0111C239.406 15.0111 242.459 14.8558 242.459 10.7119C242.459 7.66087 241.355 7.11724 237.993 6.55141C234.625 5.98558 229.131 5.2145 229.131 5.2145C227.333 4.95377 227.241 4.77626 227.241 4.29919C227.241 3.76664 227.636 3.5503 232.368 3.5503C237.11 3.5503 241.496 4.19379 241.506 4.19379V0.488166C241.501 0.488166 237.489 0 232.514 0Z" fill="black"/>
<path d="M139.203 11.139L138.472 14.6838H119.378V0.316162H138.949V3.86091H124.738V5.86905H138.424V9.21964H124.738V11.139H139.203Z" fill="black"/>
<path d="M19.8197 11.139L19.0942 14.6838H0V0.316162H19.5706V3.86091H5.35959V5.86905H19.0455V9.21964H5.35418V11.139H19.8197Z" fill="black"/>
<path d="M69.9779 0.316162H64.6292V14.6838H69.9779V0.316162Z" fill="black"/>
<path d="M61.8302 10.7618H49.3949L49.4003 0.316162H44.0515V14.6838H61.0723L61.8302 10.7618Z" fill="black"/>
<path d="M87.5724 0.316162H73.6646V14.6838H79.0133V10.9005H87.8269C91.5407 10.9005 94.3179 10.7951 94.3179 5.7692C94.3179 0.421561 91.584 0.316162 87.5724 0.316162ZM86.3597 7.61091H79.0187V3.87755H86.3327C88.2924 3.87755 88.8392 4.04397 88.8392 5.7692C88.8446 7.38347 88.1354 7.61091 86.3597 7.61091Z" fill="black"/>
<path d="M33.2187 11.2722C27.5938 11.2722 27.1066 10.6564 27.1066 7.5C27.1066 4.34357 27.5938 3.72781 33.2187 3.72781C36.9325 3.72781 38.9194 3.89423 41.2797 4.12722V0.371672C38.9031 0.127589 37.0191 0 33.668 0C23.8259 0 21.6929 1.23706 21.6929 7.5C21.6929 13.7574 23.723 15 33.668 15C37.0191 15 38.8977 14.8724 41.2852 14.6283V10.8728C38.9356 11.1058 36.9542 11.2722 33.2187 11.2722Z" fill="black"/>
<path d="M107.197 0C99.1524 0 96.3806 0.305104 96.3806 4.3713C96.3806 7.27811 97.3388 7.79401 101.161 8.42086C104.983 9.04771 110.023 9.6912 110.023 9.6912C111.507 9.89645 111.658 10.0462 111.658 10.6065C111.658 11.2112 111.658 11.4386 106.77 11.4386C102.498 11.4386 96.83 10.7175 96.83 10.7175V14.4508C96.83 14.4508 101.237 15.0111 106.742 15.0111C114.089 15.0111 117.148 14.8558 117.148 10.7119C117.148 7.66087 116.043 7.11724 112.681 6.55141C109.314 5.98558 103.819 5.2145 103.819 5.2145C102.022 4.95377 101.93 4.77626 101.93 4.29919C101.93 3.76664 102.325 3.5503 107.051 3.5503C111.799 3.5503 116.179 4.19379 116.189 4.19379V0.488166C116.189 0.488166 112.178 0 107.197 0Z" fill="black"/>
</svg>
