<svg width="173" height="31" viewBox="0 0 173 31" fill="none" xmlns="http://www.w3.org/2000/svg">
<path d="M2.052 1.1123H4.65969L8.13659 6.16371L11.4686 1.1123H14.0763V12.5141H12.0481V3.71017L8.13659 9.33888L4.22507 3.71017V12.5141H2.19688V1.1123H2.052Z" fill="white"/>
<path d="M16.5391 1.1123H18.5673V12.5141H16.5391V1.1123Z" fill="white"/>
<path d="M23.7828 2.98854H20.3059V1.1123H29.4328L28.9982 2.98854H25.811V12.5141H23.7828V2.98854Z" fill="white"/>
<path d="M30.7365 12.0811V10.2048C31.4609 10.4935 32.6199 10.7821 34.2135 10.7821C35.9519 10.7821 36.5314 10.3492 36.5314 9.48321C36.5314 8.61725 36.2416 8.3286 35.2275 7.89562L32.9096 7.02967C31.4609 6.45236 30.5917 5.73073 30.5917 4.14315C30.5917 1.97826 31.6058 1.1123 34.9378 1.1123C36.3865 1.1123 37.5455 1.40096 38.2698 1.54528V3.42152C37.5455 3.13287 36.3865 2.98854 35.0827 2.98854C33.3442 2.98854 32.9096 3.27719 32.9096 4.14315C32.9096 4.86478 33.3442 5.15343 34.5032 5.58641L36.3865 6.30804C38.2698 7.02967 38.8493 7.7513 38.8493 9.48321C38.8493 11.6481 37.6904 12.8027 34.5032 12.8027C32.6199 12.6584 31.4609 12.3697 30.7365 12.0811Z" fill="white"/>
<path d="M40.4429 8.76158V1.1123H42.4711V8.61725C42.4711 10.3492 43.1954 10.7821 44.9339 10.7821C46.6723 10.7821 47.3967 10.3492 47.3967 8.61725V1.1123H49.4249V8.76158C49.4249 11.7924 47.8313 12.6584 44.9339 12.6584C41.8916 12.6584 40.4429 11.7924 40.4429 8.76158Z" fill="white"/>
<path d="M60.5799 9.33888C60.5799 11.7924 59.2761 12.5141 56.5236 12.5141H51.7428V1.1123H56.2338C58.8415 1.1123 60.1453 1.68961 60.1453 3.99882C60.1453 5.58641 59.5658 6.16371 58.5517 6.59669C59.8556 6.74102 60.5799 7.46265 60.5799 9.33888ZM53.9159 2.84422V5.73073H56.3787C57.6825 5.73073 58.262 5.44208 58.262 4.14315C58.262 3.13287 57.8274 2.69989 56.0889 2.69989H53.9159V2.84422ZM58.4069 9.19456C58.4069 7.89562 57.9723 7.60697 56.3787 7.60697H53.771V10.7821H56.2338C57.8274 10.7821 58.4069 10.4935 58.4069 9.19456Z" fill="white"/>
<path d="M62.6082 1.1123H64.6363V12.5141H62.6082V1.1123Z" fill="white"/>
<path d="M66.8094 12.0811V10.2048C67.5338 10.4935 68.6928 10.7821 70.2863 10.7821C72.0248 10.7821 72.6043 10.3492 72.6043 9.48321C72.6043 8.61725 72.3145 8.3286 71.3004 7.89562L68.9825 7.02967C67.5338 6.45236 66.6646 5.73073 66.6646 4.14315C66.6646 1.97826 67.6787 1.1123 71.0107 1.1123C72.4594 1.1123 73.6184 1.40096 74.3428 1.54528V3.42152C73.6184 3.13287 72.4594 2.98854 71.1556 2.98854C69.4171 2.98854 68.9825 3.27719 68.9825 4.14315C68.9825 4.86478 69.4171 5.15343 70.5761 5.58641L72.4594 6.30804C74.3427 7.02967 74.9222 7.7513 74.9222 9.48321C74.9222 11.6481 73.7633 12.8027 70.5761 12.8027C68.6927 12.6584 67.6786 12.3697 66.8094 12.0811Z" fill="white"/>
<path d="M85.6426 1.1123V12.5141H83.6145V7.7513H78.6889V12.5141H76.6606V1.1123H78.6889V5.73073H83.6145V1.1123H85.6426Z" fill="white"/>
<path d="M88.2502 1.1123H90.2785V12.5141H88.2502V1.1123Z" fill="white"/>
<path d="M96.3632 1.1123H98.9709L102.448 6.16371L105.78 1.1123H108.388V12.5141H106.359V3.71017L102.448 9.33888L98.5362 3.71017V12.5141H96.508V1.1123H96.3632Z" fill="white"/>
<path d="M110.561 6.74061C110.561 2.41083 111.864 0.823242 115.341 0.823242C118.818 0.823242 120.122 2.2665 120.122 6.74061C120.122 11.0704 118.818 12.658 115.341 12.658C111.864 12.658 110.561 11.2147 110.561 6.74061ZM118.094 6.74061C118.094 3.85409 117.514 2.84381 115.341 2.84381C113.168 2.84381 112.589 3.85409 112.589 6.74061C112.589 9.62712 113.168 10.6374 115.341 10.6374C117.514 10.7817 118.094 9.77145 118.094 6.74061Z" fill="white"/>
<path d="M124.758 2.98854H121.281V1.1123H130.408L129.973 2.98854H126.786V12.5141H124.758V2.98854Z" fill="white"/>
<path d="M131.422 6.74061C131.422 2.41083 132.726 0.823242 136.203 0.823242C139.68 0.823242 140.984 2.2665 140.984 6.74061C140.984 11.0704 139.68 12.658 136.203 12.658C132.726 12.658 131.422 11.2147 131.422 6.74061ZM138.955 6.74061C138.955 3.85409 138.376 2.84381 136.203 2.84381C134.03 2.84381 133.45 3.85409 133.45 6.74061C133.45 9.62712 134.03 10.6374 136.203 10.6374C138.376 10.7817 138.955 9.77145 138.955 6.74061Z" fill="white"/>
<path d="M152.283 12.5141H149.965L147.358 8.47293H145.33V12.5141H143.301V1.1123H147.503C150.255 1.1123 151.849 1.68961 151.849 4.72045C151.849 6.88534 150.98 7.7513 149.531 8.18428L152.283 12.5141ZM149.676 4.72045C149.676 3.27719 148.951 2.84422 147.358 2.84422H145.33V6.45236H147.358C148.951 6.59669 149.676 6.30804 149.676 4.72045Z" fill="white"/>
<path d="M153.732 12.0811V10.2048C154.457 10.4935 155.616 10.7821 157.209 10.7821C158.948 10.7821 159.527 10.3492 159.527 9.48321C159.527 8.61725 159.237 8.3286 158.223 7.89562L155.905 7.02967C154.457 6.45236 153.587 5.73073 153.587 4.14315C153.587 1.97826 154.602 1.1123 157.934 1.1123C159.382 1.1123 160.541 1.40096 161.266 1.54528V3.42152C160.541 3.13287 159.382 2.98854 158.078 2.98854C156.34 2.98854 155.905 3.27719 155.905 4.14315C155.905 4.86478 156.34 5.15343 157.499 5.58641L159.382 6.30804C161.266 7.02967 161.845 7.7513 161.845 9.48321C161.845 11.6481 160.686 12.8027 157.499 12.8027C155.616 12.6584 154.601 12.3697 153.732 12.0811Z" fill="white"/>
<path d="M8.71612 27.091H3.93536L3.06614 29.6889H0.893066L5.09434 18.2871H7.55715L11.7584 29.6889H9.58535L8.71612 27.091ZM7.99176 25.3591L6.2533 20.452L4.51485 25.3591H7.99176Z" fill="white"/>
<path d="M13.0622 29.3999V27.5237C13.7866 27.8123 14.9456 28.101 16.5391 28.101C18.2776 28.101 18.8571 27.668 18.8571 26.8021C18.8571 25.9361 18.5673 25.6475 17.5532 25.2145L15.2353 24.3485C13.7866 23.7712 12.9174 23.0496 12.9174 21.462C12.9174 19.2971 13.9315 18.4312 17.2635 18.4312C18.7122 18.4312 19.8712 18.7198 20.5955 18.8641V20.7404C19.8712 20.4517 18.7122 20.3074 17.4084 20.3074C15.6699 20.3074 15.2353 20.596 15.2353 21.462C15.2353 22.1836 15.6699 22.4723 16.8289 22.9053L18.7122 23.6269C20.5955 24.3485 21.175 25.0701 21.175 26.8021C21.175 28.9669 20.016 30.1216 16.8289 30.1216C14.9456 29.9772 13.9315 29.6886 13.0622 29.3999Z" fill="white"/>
<path d="M22.6238 29.3999V27.5237C23.3481 27.8123 24.5071 28.101 26.1007 28.101C27.8391 28.101 28.4186 27.668 28.4186 26.8021C28.4186 25.9361 28.1288 25.6475 27.1147 25.2145L24.7968 24.3485C23.3481 23.7712 22.4789 23.0496 22.4789 21.462C22.4789 19.2971 23.493 18.4312 26.825 18.4312C28.2737 18.4312 29.4327 18.7198 30.157 18.8641V20.7404C29.4327 20.4517 28.2737 20.3074 26.9699 20.3074C25.2314 20.3074 24.7968 20.596 24.7968 21.462C24.7968 22.1836 25.2314 22.4723 26.3904 22.9053L28.2737 23.6269C30.157 24.3485 30.7365 25.0701 30.7365 26.8021C30.7365 28.9669 29.5776 30.1216 26.3904 30.1216C24.5071 29.9772 23.3481 29.6886 22.6238 29.3999Z" fill="white"/>
<path d="M32.475 18.4312H34.5032V29.8329H32.475V18.4312Z" fill="white"/>
<path d="M36.6762 29.3999V27.5237C37.4006 27.8123 38.5596 28.101 40.1532 28.101C41.8916 28.101 42.4711 27.668 42.4711 26.8021C42.4711 25.9361 42.1813 25.6475 41.1672 25.2145L38.8493 24.3485C37.4006 23.7712 36.5314 23.0496 36.5314 21.462C36.5314 19.2971 37.5455 18.4312 40.8775 18.4312C42.3262 18.4312 43.4852 18.7198 44.2095 18.8641V20.7404C43.4852 20.4517 42.3262 20.3074 41.0224 20.3074C39.2839 20.3074 38.8493 20.596 38.8493 21.462C38.8493 22.1836 39.2839 22.4723 40.4429 22.9053L42.3262 23.6269C44.2095 24.3485 44.789 25.0701 44.789 26.8021C44.789 28.9669 43.6301 30.1216 40.4429 30.1216C38.5596 29.9772 37.5455 29.6886 36.6762 29.3999Z" fill="white"/>
<path d="M49.1351 20.3074H45.6582V18.4312H54.7851L54.3505 20.3074H51.1633V29.8329H49.1351V20.3074Z" fill="white"/>
<path d="M61.8838 27.091H57.1031L56.2339 29.6889H54.0608L58.2621 18.2871H60.7249L64.9261 29.6889H62.7531L61.8838 27.091ZM61.3044 25.3591L59.5659 20.452L57.8274 25.3591H61.3044Z" fill="white"/>
<path d="M66.6646 18.4312H68.403L73.7632 26.2248V18.4312H75.7914V29.8329H74.053L68.6927 22.0393V29.8329H66.6646V18.4312Z" fill="white"/>
<path d="M77.8196 24.0599C77.8196 19.5858 79.4132 18.1426 82.8901 18.1426C84.049 18.1426 85.208 18.2869 85.9324 18.5756V20.5961C85.3529 20.4518 84.3388 20.1631 83.035 20.1631C80.5721 20.1631 79.8478 21.0291 79.8478 24.0599C79.8478 27.2351 80.717 27.9567 83.035 27.9567C84.3388 27.9567 85.3529 27.6681 85.9324 27.5238V29.5443C85.208 29.6887 83.9042 29.9773 82.8901 29.9773C79.558 29.9773 77.8196 28.534 77.8196 24.0599Z" fill="white"/>
<path d="M95.7837 27.8126L95.3491 29.6889H87.9607V18.2871H95.494V20.1633H89.9889V23.0499H95.2043V24.9261H89.9889V27.9569H95.7837V27.8126Z" fill="white"/>
<path d="M109.981 22.1839C109.981 25.2148 108.532 26.0807 105.925 26.0807H103.462V29.6889H101.434V18.2871H106.069C108.532 18.4314 109.981 19.1531 109.981 22.1839ZM107.953 22.1839C107.953 20.5963 107.373 20.1633 105.635 20.1633H103.462V24.3488H105.635C107.373 24.3488 107.953 23.9158 107.953 22.1839Z" fill="white"/>
<path d="M117.949 27.091H113.168L112.299 29.6889H110.126L114.327 18.2871H116.79L120.991 29.6889H118.818L117.949 27.091ZM117.37 25.3591L115.631 20.452L113.893 25.3591H117.37Z" fill="white"/>
<path d="M121.716 24.0599C121.716 19.5858 123.309 18.1426 126.786 18.1426C127.945 18.1426 129.104 18.2869 129.828 18.5756V20.5961C129.249 20.4518 128.235 20.1631 126.931 20.1631C124.468 20.1631 123.744 21.0291 123.744 24.0599C123.744 27.2351 124.613 27.9567 126.931 27.9567C128.235 27.9567 129.249 27.6681 129.828 27.5238V29.5443C129.104 29.6887 127.8 29.9773 126.786 29.9773C123.454 29.9773 121.716 28.534 121.716 24.0599Z" fill="white"/>
<path d="M138.666 29.6889L134.03 24.2045V29.6889H132.001V18.2871H134.03V23.6272L138.376 18.2871H140.983L136.203 23.9158L141.273 29.6889H138.666Z" fill="white"/>
<path d="M149.966 27.091H145.185L144.316 29.6889H142.142L146.344 18.2871H148.807L153.008 29.6889H150.835L149.966 27.091ZM149.241 25.3591L147.503 20.452L145.764 25.3591H149.241Z" fill="white"/>
<path d="M153.732 24.0599C153.732 19.4415 155.326 18.1426 159.092 18.1426C160.396 18.1426 161.41 18.2869 162.424 18.5756V20.5961C161.41 20.3075 160.541 20.1631 159.382 20.1631C156.774 20.1631 155.905 20.7404 155.905 24.0599C155.905 27.3794 156.774 27.9567 159.092 27.9567C159.817 27.9567 160.396 27.9567 160.976 27.6681V23.7713L163.004 23.194V29.1114C161.555 29.5443 160.541 29.6887 159.092 29.6887C155.471 29.9773 153.732 28.8227 153.732 24.0599Z" fill="white"/>
<path d="M173 27.8126L172.565 29.6889H165.177V18.2871H172.71V20.1633H167.205V23.0499H172.421V24.9261H167.205V27.9569H173V27.8126Z" fill="white"/>
</svg>
