<svg width="84" height="29" viewBox="0 0 84 29" fill="none" xmlns="http://www.w3.org/2000/svg">
<path d="M0 0.823242H8.69227L15.2115 11.0704L21.4409 0.823242H30.2781V28.6781H23.4691V9.33847L15.2115 21.8948L6.80895 9.33847V28.8225H0V0.823242Z" fill="#E3000B"/>
<path d="M50.5601 23.3381H40.4191L38.6806 28.6781H31.7268L41.4332 0.823242H49.8357L59.3972 28.8225H52.2985L50.5601 23.3381ZM48.8216 17.7094L45.6344 7.60656L42.4473 17.7094H48.8216Z" fill="#E3000B"/>
<path d="M83.0112 10.9261C83.0112 18.864 78.9548 20.8845 73.3049 20.8845H67.6549V28.8225H60.8459V0.823242H73.3049C79.0997 0.823242 83.0112 2.84381 83.0112 10.9261ZM76.2023 10.9261C76.2023 8.18387 75.1882 7.17358 72.2908 7.17358H67.6549V14.6785H72.2908C75.1882 14.6785 76.2023 13.6683 76.2023 10.9261Z" fill="#E3000B"/>
</svg>
