<svg width="41" height="42" viewBox="0 0 41 42" fill="none" xmlns="http://www.w3.org/2000/svg">
<path d="M28.7778 17V11.4119C28.7778 11.148 28.6735 10.8949 28.4877 10.7076L19.1503 1.29571C18.9625 1.10645 18.707 1 18.4404 1L2 1C1.44772 1 1 1.44771 1 2L1 40C1 40.5523 1.44772 41 2 41H27.7778C28.3301 41 28.7778 40.5523 28.7778 40V35" stroke="#686D71" stroke-width="2"/>
<path d="M19.3334 11.0001V1.55566L28.7778 11.0001H19.3334Z" stroke="#686D71" stroke-width="2" stroke-linecap="round" stroke-linejoin="round"/>
<path d="M12.8915 19.5481H7.99554V31.7881H10.1915V27.9181H12.8915C15.5915 27.9181 17.1935 27.0181 17.1935 23.7241C17.1935 20.4301 15.5915 19.5481 12.8915 19.5481ZM12.5315 25.9021H10.1915V21.5641H12.5315C14.3135 21.5641 14.9615 22.0141 14.9615 23.7241C14.9615 25.4521 14.3135 25.9021 12.5315 25.9021ZM23.4228 19.5481H19.1928V31.7881H23.4048C26.9148 31.7881 28.8408 30.4381 28.8408 25.6501C28.8408 20.8261 26.9508 19.5481 23.4228 19.5481ZM23.3328 29.7721H21.3888V21.5641H23.4408C25.9428 21.5641 26.6088 22.6441 26.6088 25.6501C26.6088 28.5301 25.9068 29.7721 23.3328 29.7721ZM39.2455 21.5641V19.5481H31.1635V31.7881H33.3595V27.0361H38.2555L38.6875 25.0201H33.3595V21.5641H39.2455Z" fill="black"/>
</svg>
