<svg width="210" height="51" viewBox="0 0 210 51" fill="none" xmlns="http://www.w3.org/2000/svg">
<path fill-rule="evenodd" clip-rule="evenodd" d="M16.2993 0H31.5717L19.4895 37.888H52.2865L48.0998 51H0L16.2993 0Z" fill="black"/>
<path fill-rule="evenodd" clip-rule="evenodd" d="M139.162 7.33301C127.992 7.33301 117.964 10.5984 110.556 24.1302C103.375 37.0964 110.213 51.0002 125.371 51.0002C140.529 51.0002 148.849 43.8661 154.774 31.9104C160.705 19.9573 154.889 7.33301 139.162 7.33301ZM141.556 31.3473C137.794 38.7882 132.552 41.0456 126.851 40.5931C121.154 40.1406 116.708 35.6334 121.612 26.4982C125.602 19.8442 129.591 17.4787 136.655 17.4787C143.722 17.4787 145.318 23.9015 141.556 31.3473Z" fill="black"/>
<path fill-rule="evenodd" clip-rule="evenodd" d="M192.111 7.33301C180.942 7.33301 170.911 10.5984 163.504 24.1302C156.322 37.0964 163.16 51.0002 178.318 51.0002C193.476 51.0002 201.799 43.8661 207.727 31.9104C213.652 19.9573 207.839 7.33301 192.111 7.33301ZM194.503 31.3473C190.744 38.7882 185.5 41.0456 179.8 40.5931C174.101 40.1406 169.658 35.6334 174.559 26.4982C178.547 19.8442 182.538 17.4787 189.602 17.4787C196.669 17.4787 198.265 23.9015 194.503 31.3473Z" fill="black"/>
<path fill-rule="evenodd" clip-rule="evenodd" d="M66.3412 8.57031C66.3412 8.57031 86.0519 8.57031 94.5981 8.57031C103.147 8.57031 106.68 13.98 105.541 19.7341C104.4 25.4832 101.406 31.0864 93.8025 32.5872C86.3442 34.0577 77.5031 32.924 73.6266 35.6339C70.9295 37.3559 70.5101 39.5806 70.5101 39.5806H98.7085L95.0531 51.0008H54.709L58.9084 37.8888C58.9084 37.8888 60.1489 33.9723 63.0849 31.1518C65.6777 28.6581 68.6214 26.5892 73.2885 25.5963C81.3899 23.8768 91.629 25.8954 91.7409 21.0438C91.8553 17.8865 87.9228 18.1655 87.9228 18.1655L63.2959 18.1554L66.3412 8.57031Z" fill="black"/>
</svg>
