<svg width="31" height="32" viewBox="0 0 31 32" fill="none" xmlns="http://www.w3.org/2000/svg">
<path d="M28.2886 31.0005H3.59597C2.29511 31.0005 1.23077 29.9153 1.23077 28.5889V3.41206C1.23077 2.0857 2.29511 1.00049 3.59597 1.00049H28.2886C29.5895 1.00049 30.6538 2.0857 30.6538 3.41206V28.5889C30.6538 29.9153 29.5895 31.0005 28.2886 31.0005Z" stroke="#BFC2C4" stroke-width="0.5" stroke-miterlimit="10"/>
<path d="M21.335 11.0088H25.072V5.99268H19.7976C17.2432 5.99268 15.1855 8.09075 15.1855 10.6952V14.5297H11.8269V19.5698H15.1855V31.0007H20.1288V19.5457H23.4873V14.5297H20.1288V12.2628C20.1288 11.5634 20.6727 11.0088 21.335 11.0088Z" fill="#BFC2C4"/>
</svg>
