<svg width="31" height="32" viewBox="0 0 31 32" fill="none" xmlns="http://www.w3.org/2000/svg">
<path d="M28.1496 31.0005H3.48059C2.17973 31.0005 1.11539 29.9153 1.11539 28.5889V3.41206C1.11539 2.0857 2.17973 1.00049 3.48059 1.00049H28.1496C29.4505 1.00049 30.5148 2.0857 30.5148 3.41206V28.5889C30.5148 29.9153 29.4741 31.0005 28.1496 31.0005Z" stroke="#BFC2C4" stroke-width="0.5" stroke-miterlimit="10"/>
<path d="M22.3313 27.1659H9.29902C6.83921 27.1659 4.85245 25.1401 4.85245 22.6321V9.34431C4.85245 6.83627 6.83921 4.81055 9.29902 4.81055H22.3313C24.7911 4.81055 26.7778 6.83627 26.7778 9.34431V22.6321C26.7778 25.1401 24.7911 27.1659 22.3313 27.1659ZM9.29902 7.22212C8.16373 7.22212 7.21765 8.16264 7.21765 9.34431V22.6321C7.21765 23.7896 8.14007 24.7543 9.29902 24.7543H22.3313C23.4666 24.7543 24.4126 23.8138 24.4126 22.6321V9.34431C24.4126 8.18675 23.4902 7.22212 22.3313 7.22212H9.29902ZM22.0001 8.47614C21.3379 8.47614 20.8175 9.00669 20.8175 9.68193C20.8175 10.3572 21.3379 10.8877 22.0001 10.8877C22.6624 10.8877 23.1827 10.3572 23.1827 9.68193C23.1827 9.00669 22.6624 8.47614 22.0001 8.47614ZM15.827 21.4986C12.8468 21.4986 10.4343 19.0388 10.4343 16.0003C10.4343 12.9617 12.8468 10.5019 15.827 10.5019C18.8071 10.5019 21.2196 12.9617 21.2196 16.0003C21.2196 19.0388 18.8071 21.4986 15.827 21.4986ZM15.827 12.9134C14.1477 12.9134 12.7995 14.288 12.7995 16.0003C12.7995 17.7125 14.1477 19.0871 15.827 19.0871C17.5063 19.0871 18.8544 17.7125 18.8544 16.0003C18.8544 14.288 17.4826 12.9134 15.827 12.9134Z" fill="#BFC2C4"/>
</svg>
