<svg width="73" height="70" viewBox="0 0 73 70" fill="none" xmlns="http://www.w3.org/2000/svg">
<path d="M17.0656 40.627V47.7132H15.4682V42.7299L13.3313 46.2942L11.1859 42.7299V47.7132H9.60126V40.627H11.6575L13.3313 43.5116L14.9712 40.627H17.0656Z" fill="black"/>
<path d="M20.0054 40.627H18.4166V47.7132H20.0054V40.627Z" fill="black"/>
<path d="M22.6055 42.1011H20.6895V40.627H26.1188V42.1011H24.2028V47.7132H22.6055V42.1011Z" fill="black"/>
<path d="M26.7094 47.624V46.1456C27.0407 46.205 27.8394 46.3452 28.8165 46.3452C29.6365 46.3452 30.0443 46.2348 30.0443 45.7845C30.0443 45.2662 29.6959 45.1939 28.5489 44.6671C27.4316 44.1573 26.6031 43.707 26.6031 42.509C26.6031 41.0306 27.5038 40.5208 29.2796 40.5208C30.1888 40.5208 30.8472 40.6015 31.2551 40.6525V42.1309C30.8557 42.0926 30.1293 41.9907 29.3178 41.9907C28.3577 41.9907 28.1708 42.0884 28.1708 42.4792C28.1708 42.8786 28.6891 43.0783 29.4665 43.4266C30.6348 43.9577 31.5907 44.3952 31.5907 45.742C31.5907 47.1482 30.7113 47.8067 28.8165 47.8067C28.0688 47.8109 27.3679 47.7302 26.7094 47.624Z" fill="black"/>
<path d="M32.5381 45.3171V40.627H34.127V45.2577C34.127 46.0648 34.607 46.3452 35.3632 46.3452C36.1237 46.3452 36.6122 46.0648 36.6122 45.2577V40.627H38.2011V45.3171C38.2011 47.0335 37.0753 47.8109 35.3675 47.8109C33.6554 47.8109 32.5381 47.0335 32.5381 45.3171Z" fill="black"/>
<path d="M39.5563 40.627H42.6491C44.0978 40.627 44.8965 41.1537 44.8965 42.4537C44.8965 43.4818 44.306 43.8005 43.7664 44.0129C44.4037 44.2041 45.0749 44.5524 45.0749 45.7377C45.0749 46.974 44.3272 47.7132 42.7596 47.7132H39.5563V40.627ZM42.424 43.4903C43.0612 43.4903 43.2906 43.1505 43.2906 42.6832C43.2906 42.1139 43.0102 41.9652 42.424 41.9652H41.1452V43.4903H42.424ZM42.5302 46.375C43.1674 46.375 43.4266 46.1456 43.4266 45.5253C43.4266 44.9773 43.1887 44.7479 42.5981 44.7479H41.141V46.375H42.5302Z" fill="black"/>
<path d="M47.624 40.627H46.0351V47.7132H47.624V40.627Z" fill="black"/>
<path d="M48.7795 47.624V46.1456C49.1109 46.205 49.9095 46.3452 50.8867 46.3452C51.7066 46.3452 52.1144 46.2348 52.1144 45.7845C52.1144 45.2662 51.7661 45.1939 50.619 44.6671C49.5017 44.1573 48.6733 43.707 48.6733 42.509C48.6733 41.0306 49.5739 40.5208 51.3497 40.5208C52.2589 40.5208 52.9174 40.6015 53.3252 40.6525V42.1309C52.9259 42.0926 52.1994 41.9907 51.388 41.9907C50.4278 41.9907 50.2409 42.0884 50.2409 42.4792C50.2409 42.8786 50.7592 43.0783 51.5409 43.4266C52.7092 43.9577 53.6651 44.3952 53.6651 45.742C53.6651 47.1482 52.7857 47.8067 50.8909 47.8067C50.139 47.8109 49.438 47.7302 48.7795 47.624Z" fill="black"/>
<path d="M60.199 40.627V47.7132H58.6144V44.8965H56.0994V47.7132H54.5105V40.627H56.0994V43.4181H58.6144V40.627H60.199Z" fill="black"/>
<path d="M63.0879 40.627H61.499V47.7132H63.0879V40.627Z" fill="black"/>
<path d="M24.5087 50.1646V57.2508H22.9113V52.2675L20.7744 55.8318L18.629 52.2675V57.2508H17.0401V50.1646H19.0963L20.7744 53.0492L22.41 50.1646H24.5087Z" fill="black"/>
<path d="M25.5963 53.7076C25.5963 51.1713 26.5649 50.0625 28.6509 50.0625C30.7368 50.0625 31.7054 51.1713 31.7054 53.7076C31.7054 56.2438 30.7368 57.3527 28.6509 57.3527C26.5649 57.3484 25.5963 56.2396 25.5963 53.7076ZM30.0571 53.7076C30.0571 52.2589 29.8064 51.5324 28.6509 51.5324C27.4911 51.5324 27.2447 52.2589 27.2447 53.7076C27.2447 55.1648 27.4953 55.904 28.6509 55.904C29.8107 55.904 30.0571 55.1648 30.0571 53.7076Z" fill="black"/>
<path d="M33.8805 51.6387H31.9645V50.1646H37.3939V51.6387H35.4779V57.2508H33.8805V51.6387Z" fill="black"/>
<path d="M37.6573 53.7076C37.6573 51.1713 38.626 50.0625 40.7119 50.0625C42.7979 50.0625 43.7665 51.1713 43.7665 53.7076C43.7665 56.2438 42.7979 57.3527 40.7119 57.3527C38.6217 57.3484 37.6573 56.2396 37.6573 53.7076ZM42.1181 53.7076C42.1181 52.2589 41.8675 51.5324 40.7119 51.5324C39.5521 51.5324 39.3057 52.2589 39.3057 53.7076C39.3057 55.1648 39.5564 55.904 40.7119 55.904C41.8675 55.904 42.1181 55.1648 42.1181 53.7076Z" fill="black"/>
<path d="M44.8625 50.1646H47.7387C49.2554 50.1646 50.224 50.7338 50.224 52.4417C50.224 53.5377 49.6759 54.2472 48.7668 54.4681L50.5129 57.255H48.6563L47.1609 54.7188H46.4514V57.255H44.8625V50.1646ZM47.6367 53.3381C48.3547 53.3381 48.5756 52.977 48.5756 52.4417C48.5756 51.8936 48.3547 51.5325 47.6367 51.5325H46.4472V53.3381H47.6367Z" fill="black"/>
<path d="M51.1713 57.1616V55.6832C51.5027 55.7426 52.2971 55.8828 53.2785 55.8828C54.0984 55.8828 54.5063 55.7724 54.5063 55.3221C54.5063 54.8038 54.1579 54.7315 53.0109 54.2047C51.8936 53.6949 51.0651 53.2446 51.0651 52.0466C51.0651 50.5682 51.9615 50.0583 53.7416 50.0583C54.6507 50.0583 55.3092 50.1391 55.7171 50.1858V51.6642C55.3177 51.626 54.5912 51.524 53.7798 51.524C52.8197 51.524 52.6328 51.6217 52.6328 52.0126C52.6328 52.4119 53.1511 52.6116 53.9285 52.96C55.0968 53.4868 56.0527 53.9286 56.0527 55.2753C56.0527 56.6815 55.1733 57.34 53.2785 57.34C52.5308 57.3485 51.8298 57.2678 51.1713 57.1616Z" fill="black"/>
<path d="M29.4453 11.7594L36.2341 23.5146L43.023 11.7594L36.2341 0L29.4453 11.7594Z" fill="#E3000B"/>
<path d="M49.8118 23.5146L36.2341 23.5189L43.023 35.2741H56.6007L49.8118 23.5146Z" fill="#E3000B"/>
<path d="M22.6564 23.5146L36.2341 23.5189L29.4453 35.2741H15.8676L22.6564 23.5146Z" fill="#E3000B"/>
<path d="M69.0739 68.067H70.0382V65.2291C70.3611 65.1356 70.7562 65.0422 71.1428 65.0422C71.4657 65.0422 71.7843 65.1824 71.7843 65.6667V68.0628H72.7487V65.62C72.7487 64.6131 72.1624 64.1968 71.5124 64.1968C70.7477 64.1968 70.2974 64.3964 69.966 64.5366V64.2732H69.0696V68.067H69.0739ZM66.253 67.3023C65.5052 67.3023 65.2504 66.9072 65.2504 66.168C65.2504 65.4033 65.5052 65.0294 66.253 65.0294C67.0049 65.0294 67.2641 65.399 67.2641 66.168C67.2641 66.9072 67.0007 67.3023 66.253 67.3023ZM66.253 68.1435C67.5615 68.1435 68.2539 67.4552 68.2539 66.1722C68.2539 64.8637 67.5572 64.201 66.253 64.201C64.953 64.201 64.252 64.8637 64.252 66.1722C64.252 67.4552 64.953 68.1435 66.253 68.1435ZM62.421 68.067H63.3853V64.2775H62.421V68.067ZM62.8968 63.7294L63.5765 63.0412L62.8968 62.3445L62.2255 63.0412L62.8968 63.7294ZM60.8193 68.1435C61.121 68.1435 61.4438 68.1137 61.6223 68.084V67.2088C61.4693 67.2301 61.2272 67.2471 61.0105 67.2471C60.5177 67.2471 60.284 67.1706 60.284 66.7075V65.0762H61.5033V64.2817H60.284V63.2366H59.3239V64.2817H58.6272V65.0762H59.3239V66.9327C59.3282 67.8249 59.8465 68.1435 60.8193 68.1435ZM56.9533 68.067H57.9177V64.2775H56.9533V68.067ZM57.4334 63.7294L58.1131 63.0412L57.4334 62.3445L56.7622 63.0412L57.4334 63.7294ZM54.1877 67.2938C53.7161 67.2938 53.3975 67.1876 53.1383 67.1239V65.2079C53.4102 65.1399 53.7161 65.0379 54.1877 65.0379C54.8589 65.0379 55.1138 65.4798 55.1138 66.1722C55.1138 66.869 54.8462 67.2938 54.1877 67.2938ZM54.4043 64.201C53.8181 64.201 53.3847 64.3794 53.1298 64.4729V62.4252H52.1654V64.4814L52.1739 68.067H53.1341V67.8121C53.372 67.9226 53.7203 68.1435 54.4086 68.1435C55.4622 68.1435 56.0867 67.349 56.0867 66.1722C56.0824 64.9997 55.4537 64.201 54.4043 64.201ZM44.8838 68.067H45.8482V65.2376C46.0733 65.1271 46.5959 65.0507 46.9145 65.0507C47.2714 65.0507 47.5178 65.2206 47.5178 65.7007V68.067H48.4821V65.5605C48.4821 65.4458 48.4736 65.3353 48.4524 65.2376C48.6606 65.1229 49.2043 65.0422 49.5272 65.0507C49.8756 65.0592 50.139 65.2206 50.139 65.7007V68.067H51.0991V65.569C51.0991 64.5876 50.5256 64.201 49.8076 64.201C49.2893 64.201 48.5331 64.354 48.1678 64.5961C47.9511 64.3242 47.5815 64.201 47.1949 64.201C46.6553 64.201 45.9799 64.4177 45.7802 64.5409V64.2775H44.8838V68.067ZM40.4613 65.8111C40.7246 64.7193 41.2132 64.0396 41.5913 63.2621C41.9779 64.0566 42.4792 64.7448 42.7596 65.8111H40.4613ZM42.3603 62.7098L42.2838 62.5781H40.8691L40.8054 62.7013C40.2403 63.8357 39.2845 65.1739 39.2845 67.4085V68.0585H40.2743V67.5105C40.2743 67.2003 40.2913 66.9242 40.3211 66.6608H42.9083C42.938 66.9242 42.955 67.2088 42.955 67.519V68.067H43.9449V67.4637C43.9449 65.2291 42.989 63.7932 42.3603 62.7098ZM34.7557 68.067H35.7201V65.2291C36.043 65.1356 36.4381 65.0422 37.1985 65.0422V64.201C36.4338 64.201 35.9835 64.4007 35.6521 64.5409V64.2775H34.7557V68.067ZM33.7064 64.2775H32.742V67.1154C32.4191 67.2088 32.024 67.3023 31.6374 67.3023C31.3146 67.3023 30.9959 67.1621 30.9959 66.6778V64.2817H30.0316V66.7245C30.0316 67.7314 30.6178 68.1477 31.2678 68.1477C32.0325 68.1477 32.4829 67.9481 32.8142 67.8079V68.0713H33.7106V64.2775H33.7064ZM27.2446 67.3023C26.4927 67.3023 26.242 66.9072 26.242 66.168C26.242 65.4033 26.4969 65.0294 27.2446 65.0294C27.9924 65.0294 28.2558 65.399 28.2558 66.168C28.2558 66.9072 27.9924 67.3023 27.2446 67.3023ZM27.2446 68.1435C28.5489 68.1435 29.2456 67.4552 29.2456 66.1722C29.2456 64.8637 28.5489 64.201 27.2446 64.201C25.9447 64.201 25.2437 64.8637 25.2437 66.1722C25.2437 67.4552 25.9447 68.1435 27.2446 68.1435ZM21.8577 70L23.4636 67.7739C23.6505 67.519 24.7296 66.168 24.7296 64.2817H23.7652C23.7652 65.7729 23.0218 66.8732 22.7924 67.2046C22.5205 66.818 21.7643 65.7517 21.7643 64.2817H20.7999C20.8636 66.2742 21.7643 67.2726 22.2316 67.9523L21.1653 69.4605L21.8577 70ZM15.7571 65.8536C15.7954 65.2673 16.012 64.9402 16.6833 64.9402C17.4734 64.9402 17.5244 65.3098 17.5329 65.8536H15.7571ZM16.8872 68.1435C17.6136 68.1435 18.0172 68.0755 18.2466 68.0118V67.2173C17.9917 67.2811 17.5414 67.366 16.9467 67.366C16.2499 67.366 15.7954 67.1579 15.7571 66.4866H18.4633C18.4718 66.3932 18.4718 66.2232 18.4718 66.0915C18.4718 64.8765 18.0767 64.2053 16.7172 64.2053C15.4045 64.2053 14.7927 64.8637 14.7927 66.1595C14.7927 67.485 15.5447 68.1435 16.8872 68.1435ZM11.8699 68.067H12.796C13.2378 67.3873 14.181 66.4271 14.249 64.2775H13.2846C13.2081 65.8451 12.6643 66.6948 12.3329 67.1748C12.0016 66.6948 11.4578 65.8451 11.3813 64.2775H10.4169C10.4892 66.4271 11.4323 67.3873 11.8699 68.067ZM8.66238 68.067H9.62675V64.2775H8.66238V68.067ZM9.14244 63.7294L9.82218 63.0412L9.14244 62.3445L8.4712 63.0412L9.14244 63.7294ZM5.49311 68.067H6.45749V65.2291C6.78036 65.1356 7.17546 65.0422 7.93591 65.0422V64.201C7.17121 64.201 6.72088 64.4007 6.38951 64.5409V64.2775H5.49311V68.067ZM0.972871 67.1536V63.4915H2.23888C3.16502 63.4915 3.62809 64.0396 3.62809 65.3013C3.62809 66.5673 3.14802 67.1579 2.20489 67.1579H0.972871V67.1536ZM0 68.067H2.1964C3.70456 68.067 4.64769 67.2003 4.64769 65.3226C4.64769 63.3811 3.71305 62.5781 2.23038 62.5781H0V68.067Z" fill="black"/>
</svg>
