<svg width="31" height="32" viewBox="0 0 31 32" fill="none" xmlns="http://www.w3.org/2000/svg">
<path d="M27.6329 31.0005H2.94401C1.6421 31.0005 0.576904 29.9144 0.576904 28.587V3.414C0.576904 2.08657 1.6421 1.00049 2.94401 1.00049H27.6329C28.9348 1.00049 30 2.08657 30 3.414V28.587C30 29.9385 28.9585 31.0005 27.6329 31.0005Z" stroke="#BFC2C4" stroke-width="0.5" stroke-miterlimit="10"/>
<path d="M15.608 15.5538C18.2592 15.5538 20.3896 13.3575 20.3896 10.6785C20.3896 7.97539 18.2355 5.80322 15.608 5.80322C12.9569 5.80322 10.8265 7.99952 10.8265 10.6785C10.8265 13.3817 12.9805 15.5538 15.608 15.5538ZM15.608 8.21674C16.9336 8.21674 18.0224 9.32696 18.0224 10.6785C18.0224 12.0301 16.9336 13.1403 15.608 13.1403C14.2824 13.1403 13.1936 12.0301 13.1936 10.6785C13.1936 9.32696 14.2824 8.21674 15.608 8.21674ZM21.218 23.4702C21.6678 23.9529 21.6441 24.7252 21.1707 25.1838C20.934 25.401 20.6499 25.5216 20.3659 25.5216C20.0582 25.5216 19.7504 25.401 19.5137 25.1355L15.608 20.936L11.7023 25.1355C11.4656 25.3768 11.1579 25.5216 10.8501 25.5216C10.5661 25.5216 10.2584 25.401 10.0453 25.1838C9.5719 24.7252 9.54822 23.9529 9.99797 23.4702L13.1699 20.0671C12.01 19.7533 10.9211 19.2224 9.95063 18.4742C9.42987 18.0639 9.31151 17.3157 9.71392 16.7847C10.1163 16.2537 10.8501 16.1331 11.3709 16.5434C12.6018 17.4846 14.0931 17.9915 15.6317 17.9915C17.194 17.9915 18.6616 17.4846 19.8925 16.5434C20.4132 16.1331 21.147 16.2537 21.5494 16.7847C21.9518 17.3157 21.8335 18.0639 21.3127 18.4742C20.3185 19.2224 19.2297 19.7533 18.0698 20.0671L21.218 23.4702Z" fill="#BFC2C4"/>
</svg>
