<svg width="31" height="32" viewBox="0 0 31 32" fill="none" xmlns="http://www.w3.org/2000/svg">
<path d="M27.404 31.0005H2.71136C1.4105 31.0005 0.346161 29.9153 0.346161 28.5889V3.41206C0.346161 2.0857 1.4105 1.00049 2.71136 1.00049H27.404C28.7049 1.00049 29.7692 2.0857 29.7692 3.41206V28.5889C29.7692 29.9153 28.7049 31.0005 27.404 31.0005Z" stroke="#BFC2C4" stroke-width="0.5" stroke-miterlimit="10"/>
<path d="M23.0519 10.2607L23.6905 8.93434L21.6327 9.44077C21.6327 9.44077 19.5987 7.75267 16.926 8.76553C14.2533 9.77839 14.9629 13.034 14.9629 13.034C14.9629 13.034 10.6109 13.1787 6.80295 9.29608C6.80295 9.29608 5.5967 12.3829 8.17476 14.0228C8.17476 14.0228 7.89094 14.3363 6.75565 14.1675C6.75565 14.1675 6.30626 16.362 9.33371 17.5195C9.33371 17.5195 8.6478 18.0019 7.48886 18.0742C7.48886 18.0742 8.15111 20.1723 10.9894 20.1723C10.9894 20.1723 9.28641 21.9568 5.92783 22.3668C5.92783 22.3668 7.93825 23.8379 10.7528 24.2237C13.0944 24.5372 16.4766 24.5131 19.2439 22.4633C24.9204 18.2913 22.5788 12.0453 22.5788 12.0453L24.1399 10.8395L23.0519 10.2607Z" fill="#BFC2C4"/>
</svg>
