<svg width="31" height="32" viewBox="0 0 31 32" fill="none" xmlns="http://www.w3.org/2000/svg">
<path d="M27.5175 31.0005H2.82865C1.52674 31.0005 0.461548 29.9144 0.461548 28.587V3.414C0.461548 2.08657 1.52674 1.00049 2.82865 1.00049H27.5175C28.8194 1.00049 29.8846 2.08657 29.8846 3.414V28.587C29.8846 29.9385 28.8431 31.0005 27.5175 31.0005Z" stroke="#BFC2C4" stroke-width="0.5" stroke-miterlimit="10"/>
<path d="M5.31402 11.3303C4.88794 11.3303 4.58021 11.7888 4.76958 12.1991C5.62174 14.0817 7.72846 18.4743 9.29075 20.0913C11.1371 21.9739 12.51 22.8669 15.895 22.9875C16.4394 23.0117 16.8891 22.5772 16.8891 22.0221V21.274C16.8891 20.6223 17.4099 20.0913 18.049 20.0913C18.1437 20.0913 18.2384 20.1396 18.3094 20.212L19.9427 22.2152C20.3451 22.7221 20.9606 23.0117 21.5997 23.0117H24.7243C25.4107 23.0117 25.7894 22.2394 25.387 21.6601C24.3929 20.212 22.1915 18.2088 22.1915 18.2088C21.8837 17.8226 21.8837 17.2917 22.1678 16.9055C22.1678 16.9055 24.4165 14.5161 25.5054 12.6094C25.8368 12.0543 25.4344 11.3303 24.7953 11.3303C23.6591 11.3303 22.0731 11.3303 21.2446 11.3303C20.9369 11.3303 20.6528 11.5233 20.5345 11.8371C20.1557 12.8749 19.2089 15.2884 17.8597 16.7124C17.6229 16.9779 17.1732 16.8331 17.1022 16.4952C16.9602 15.7711 16.7945 14.3713 16.9365 11.9819C16.9602 11.3785 16.5341 10.8717 15.966 10.7993C14.7351 10.6786 12.723 10.5821 11.9182 11.282C11.7525 11.4268 11.7999 11.7406 12.0366 11.813C12.3916 11.9336 12.8414 12.175 12.8414 12.5129C12.8414 13.068 13.1491 16.8572 12.4627 16.8572C11.7999 16.8572 10.2139 15.0471 8.95935 11.7406C8.86467 11.4992 8.62796 11.3303 8.36758 11.3303H5.31402Z" fill="#BFC2C4"/>
</svg>
