<svg width="31" height="32" viewBox="0 0 31 32" fill="none" xmlns="http://www.w3.org/2000/svg">
<path d="M28.0342 31.0005H3.3652C2.06434 31.0005 1 29.9153 1 28.5889V3.41206C1 2.0857 2.06434 1.00049 3.3652 1.00049H28.0342C29.3351 1.00049 30.3994 2.0857 30.3994 3.41206V28.5889C30.3994 29.9153 29.3587 31.0005 28.0342 31.0005Z" stroke="#BFC2C4" stroke-width="0.5" stroke-miterlimit="10"/>
<path d="M11.0995 9.46516L9.51478 4.71436H10.7447L11.6671 7.9941H11.6908L12.6132 4.71436H13.8431L12.2584 9.46516V12.9378H11.0995V9.46516ZM13.6302 9.03108C13.6302 8.78992 13.6539 8.57288 13.6775 8.37995C13.7012 8.18702 13.7721 7.9941 13.8431 7.8494C13.985 7.58413 14.1742 7.3912 14.4344 7.24651C14.6946 7.10181 15.002 7.00535 15.3568 7.00535C15.7116 7.00535 16.0191 7.0777 16.2793 7.24651C16.5394 7.3912 16.7286 7.60825 16.8706 7.8494C16.9652 7.9941 17.0125 8.18702 17.0361 8.37995C17.0598 8.57288 17.0834 8.78992 17.0834 9.03108V10.9603C17.0834 11.2015 17.0598 11.4185 17.0361 11.6115C17.0125 11.8044 16.9415 11.9973 16.8706 12.142C16.7286 12.4073 16.5394 12.6002 16.2793 12.7449C16.0191 12.8896 15.7116 12.9861 15.3568 12.9861C15.002 12.9861 14.6946 12.9137 14.4344 12.7449C14.1742 12.6002 13.985 12.3832 13.8431 12.142C13.7485 11.9973 13.7012 11.8044 13.6775 11.6115C13.6539 11.4185 13.6302 11.2015 13.6302 10.9603V9.03108ZM14.7892 11.1533C14.7892 11.3703 14.8365 11.5391 14.9311 11.6597C15.0257 11.7803 15.1676 11.8285 15.3568 11.8285C15.5224 11.8285 15.6643 11.7803 15.7826 11.6597C15.8772 11.5391 15.9245 11.3703 15.9245 11.1533V8.83815C15.9245 8.62111 15.8772 8.4523 15.7826 8.33172C15.688 8.21114 15.546 8.16291 15.3568 8.16291C15.1913 8.16291 15.0493 8.21114 14.9311 8.33172C14.8365 8.4523 14.7892 8.62111 14.7892 8.83815V11.1533ZM21.3881 12.9378H20.2291V12.359H20.2055C20.0872 12.552 19.9453 12.6967 19.7797 12.8172C19.6142 12.9378 19.4013 12.9861 19.1175 12.9861C18.9756 12.9861 18.8337 12.9619 18.6918 12.9137C18.5498 12.8655 18.4079 12.769 18.3133 12.6726C18.1951 12.552 18.1005 12.4073 18.0295 12.2385C17.9585 12.0455 17.9349 11.8285 17.9349 11.5632V7.0777H19.0938V11.1291C19.0938 11.3462 19.1411 11.515 19.2358 11.6356C19.3304 11.7562 19.4723 11.8285 19.6615 11.8285C19.8744 11.8285 20.0399 11.7562 20.1109 11.6115C20.2055 11.4668 20.2291 11.2738 20.2291 11.0086V7.0777H21.3881V12.9378ZM21.8138 20.5102C21.6483 20.5102 21.5063 20.5584 21.3881 20.679C21.2935 20.7996 21.2462 20.9684 21.2462 21.1854V21.8607H22.3815V21.1854C22.3815 20.9684 22.3342 20.7996 22.2396 20.679C22.1213 20.5584 21.9794 20.5102 21.8138 20.5102ZM17.5092 20.5102C17.3436 20.5102 17.2017 20.5584 17.0834 20.679C16.9652 20.7996 16.9179 20.9443 16.9179 21.1372V23.4282C16.9179 23.6452 16.9652 23.814 17.0834 23.9587C17.178 24.1034 17.3199 24.1517 17.5092 24.1517C17.6984 24.1517 17.8403 24.0793 17.9349 23.9346C18.0295 23.7899 18.0768 23.597 18.0768 23.3558V21.2095C18.0768 21.0166 18.0295 20.8719 17.9585 20.7272C17.8876 20.5825 17.722 20.5102 17.5092 20.5102ZM22.9491 14.7706H8.61601C7.07863 14.7706 5.82507 16.0488 5.82507 17.6163V24.3446C5.82507 25.9121 7.07863 27.1902 8.61601 27.1902H22.9255C24.4628 27.1902 25.7164 25.9121 25.7164 24.3446V17.5922C25.7164 16.0246 24.4865 14.7706 22.9491 14.7706ZM10.2716 25.261H9.1127V18.1227H7.76454V17.0134H11.5962V18.1227H10.248V25.261H10.2716ZM14.8128 25.261H13.6539V24.6822H13.6302C13.512 24.8751 13.3701 25.0198 13.2045 25.1404C13.0389 25.261 12.8261 25.3092 12.5422 25.3092C12.4003 25.3092 12.2584 25.2851 12.1165 25.2369C11.9746 25.1886 11.8327 25.0922 11.7381 24.9957C11.6198 24.8751 11.5252 24.7304 11.4542 24.5616C11.3833 24.3687 11.3596 24.1517 11.3596 23.8864V19.4008H12.5186V23.4523C12.5186 23.6693 12.5659 23.8381 12.6605 23.9587C12.7551 24.0793 12.897 24.1517 13.0862 24.1517C13.2991 24.1517 13.4647 24.0793 13.5356 23.9346C13.6302 23.7899 13.6539 23.597 13.6539 23.3317V19.4008H14.8128V25.261ZM19.2358 23.5005C19.2358 23.814 19.2121 24.0793 19.1884 24.2722C19.1648 24.4652 19.1175 24.634 19.0465 24.7545C18.8573 25.1163 18.5025 25.3092 18.0295 25.3092C17.7457 25.3092 17.5328 25.261 17.3672 25.1404C17.2253 25.0198 17.0598 24.8751 16.9179 24.7063V25.2369H15.7826V17.0134H16.9415V19.9073H16.9652C17.0834 19.7144 17.249 19.5697 17.4145 19.4732C17.6038 19.3767 17.793 19.3285 18.0295 19.3285C18.3133 19.3285 18.5262 19.3767 18.6918 19.4732C18.8573 19.5697 18.9756 19.6902 19.0702 19.859C19.1411 19.9796 19.1884 20.1484 19.2121 20.3414C19.2358 20.5343 19.2358 20.8478 19.2358 21.2819V23.5005ZM23.5404 22.7771H21.2462V23.5729C21.2462 23.7658 21.2935 23.9105 21.3881 24.007C21.4827 24.1034 21.6246 24.1517 21.8138 24.1517C22.0267 24.1517 22.1686 24.0793 22.2396 23.9587C22.3105 23.8381 22.3578 23.6935 22.3815 23.5729H23.5404C23.5404 23.814 23.4931 24.0552 23.4222 24.2722C23.3512 24.4893 23.2329 24.6822 23.0674 24.8269C22.9255 24.9957 22.7362 25.1163 22.5234 25.2127C22.3105 25.3092 22.074 25.3574 21.8138 25.3574C21.459 25.3574 21.1516 25.2851 20.8914 25.1163C20.6312 24.9716 20.442 24.7545 20.3001 24.5134C20.2055 24.3687 20.1582 24.1758 20.1345 23.9828C20.1109 23.7899 20.0872 23.5729 20.0872 23.3317V21.4025C20.0872 21.1613 20.1109 20.9443 20.1345 20.7513C20.1582 20.5584 20.2291 20.3655 20.3001 20.2208C20.442 19.9555 20.6312 19.7626 20.8914 19.6179C21.1516 19.4732 21.459 19.3767 21.8138 19.3767C22.074 19.3767 22.3105 19.425 22.5234 19.5214C22.7362 19.6179 22.9255 19.7385 23.0674 19.9073C23.2093 20.0761 23.3275 20.269 23.3985 20.4861C23.4695 20.7031 23.5168 20.9443 23.5168 21.2095V22.7771H23.5404Z" fill="#BFC2C4"/>
</svg>
